<?xml version="1.0" ?><svg data-name="Layer 1" id="Layer_1" viewBox="0 0 128 128" xmlns="http://www.w3.org/2000/svg" xmlns:xlink="http://www.w3.org/1999/xlink"><defs><style>.cls-1{fill:none;}.cls-2{clip-path:url(#clip-path);}.cls-3{fill:url(#radial-gradient);}.cls-4{clip-path:url(#clip-path-2);}.cls-5{fill:url(#radial-gradient-2);}.cls-6{clip-path:url(#clip-path-3);}.cls-7{clip-path:url(#clip-path-4);}.cls-8{clip-path:url(#clip-path-5);}.cls-9{fill:url(#radial-gradient-5);}.cls-10{clip-path:url(#clip-path-6);}.cls-11{fill:url(#radial-gradient-6);}</style><clipPath id="clip-path"><circle class="cls-1" cx="64" cy="-99" r="64"/></clipPath><radialGradient cx="27.5" cy="-41.5" gradientUnits="userSpaceOnUse" id="radial-gradient" r="137.5"><stop offset="0" stop-color="#ffd676"/><stop offset="0.25" stop-color="#f2a454"/><stop offset="0.38" stop-color="#f05c3c"/><stop offset="0.7" stop-color="#c22f86"/><stop offset="0.96" stop-color="#6666ad"/><stop offset="0.99" stop-color="#5c6cb2"/></radialGradient><clipPath id="clip-path-2"><path class="cls-1" d="M64,128a64,64,0,1,1,64-64A64.07,64.07,0,0,1,64,128ZM64,8a56,56,0,1,0,56,56A56.06,56.06,0,0,0,64,8Z"/></clipPath><radialGradient cx="27.5" cy="121.5" id="radial-gradient-2" r="148.5" xlink:href="#radial-gradient"/><clipPath id="clip-path-3"><path class="cls-1" d="M64,48A16,16,0,1,0,80,64,16,16,0,0,0,64,48Zm0,24a8,8,0,1,1,8-8A8,8,0,0,1,64,72Z"/></clipPath><clipPath id="clip-path-4"><path class="cls-1" d="M84,100H44A16,16,0,0,1,28,84V44A16,16,0,0,1,44,28H84a16,16,0,0,1,16,16V84A16,16,0,0,1,84,100ZM44,36a8,8,0,0,0-8,8V84a8,8,0,0,0,8,8H84a8,8,0,0,0,8-8V44a8,8,0,0,0-8-8Z"/></clipPath><clipPath id="clip-path-5"><circle class="cls-1" cx="82" cy="46" r="5"/></clipPath><radialGradient cx="13.87" cy="140.38" id="radial-gradient-5" r="185.63" xlink:href="#radial-gradient"/><clipPath id="clip-path-6"><circle class="cls-1" cx="82" cy="-280" r="5"/></clipPath><radialGradient cx="13.87" cy="-185.62" id="radial-gradient-6" r="185.63" xlink:href="#radial-gradient"/></defs><title/><g class="cls-2"><circle class="cls-3" cx="27.5" cy="-41.5" r="137.5"/></g><g class="cls-4"><circle class="cls-5" cx="27.5" cy="121.5" r="148.5"/></g><g class="cls-6"><circle class="cls-5" cx="27.5" cy="121.5" r="148.5"/></g><g class="cls-7"><circle class="cls-5" cx="27.5" cy="121.5" r="148.5"/></g><g class="cls-8"><circle class="cls-9" cx="13.87" cy="140.38" r="185.63"/></g><g class="cls-10"><circle class="cls-11" cx="13.87" cy="-185.62" r="185.63"/></g></svg>